<svg xmlns="http://www.w3.org/2000/svg" fill="#000000" width="800" height="800" viewBox="0 0 451.215 451.214" xml:space="preserve">
  <path d="M434.262 377.113c-14.697-21.898-37.031-48.195-62.887-74.049-14.203-14.205-29.113-27.855-43.115-39.477a6.498 6.498 0 0 0-10.242 2.734c-2.189 5.882-5.758 11.319-10.604 16.163-3.98 3.982-8.113 7.116-12.285 9.314a6.497 6.497 0 0 0-1.953 9.922c11.277 13.474 24.449 27.809 38.094 41.457 47.014 47.012 92.693 79.846 111.086 79.847 2.824 0 5.035-.777 6.566-2.309 7.223-7.225-3.984-27.698-14.66-43.602M243.857 243.007c1.158 7.334 2.471 15.647 6.73 24.82 5.792 12.473 15.584 19.92 26.191 19.922h.002c8.016 0 16.086-4.008 23.99-11.91 11.201-11.201 14.574-25.885 9.023-39.28-7.363-17.779-28.377-29.267-53.533-29.267-5.537 0-11.322.533-17.195 1.585a6.502 6.502 0 0 0-3.769 10.65c5.934 6.861 7.151 14.56 8.561 23.48"/>
  <path d="M412.197 28.191H6.5a6.5 6.5 0 0 0-6.5 6.5v275.467a6.5 6.5 0 0 0 6.5 6.5h278.209l-13.289-17.07c-26.898 0-34.912-25.93-37.26-25.93H43V71.191h332.697v202.467h-15.26l41.412 43h10.348a6.5 6.5 0 0 0 6.5-6.5V34.691a6.5 6.5 0 0 0-6.5-6.5"/>
</svg>
