<svg xmlns="http://www.w3.org/2000/svg" fill="#000000" width="800" height="800" viewBox="0 0 451.215 451.214" xml:space="preserve">
  <path d="M434.262 377.113c-14.697-21.898-37.031-48.195-62.887-74.049-14.203-14.205-29.113-27.855-43.115-39.477a6.498 6.498 0 0 0-10.242 2.734c-2.189 5.882-5.758 11.319-10.604 16.163-3.98 3.982-8.113 7.116-12.285 9.314a6.497 6.497 0 0 0-1.953 9.922c11.277 13.474 24.449 27.809 38.094 41.457 47.014 47.012 92.693 79.846 111.086 79.847 2.824 0 5.035-.777 6.566-2.309 7.223-7.225-3.984-27.698-14.66-43.602M243.857 243.007c1.158 7.334 2.471 15.647 6.73 24.82 5.792 12.473 15.584 19.92 26.191 19.922h.002c8.016 0 16.086-4.008 23.99-11.91 11.201-11.201 14.574-25.885 9.023-39.28-7.363-17.779-28.377-29.267-53.533-29.267-5.537 0-11.322.533-17.195 1.585a6.502 6.502 0 0 0-3.769 10.65c5.934 6.861 7.151 14.56 8.561 23.48"/>
  <path d="M412.197 28.191H6.5a6.5 6.5 0 0 0-6.5 6.5v275.467a6.5 6.5 0 0 0 6.5 6.5h278.209l-13.289-17.07c-26.898 0-34.912-25.93-37.26-25.93H43V71.191h332.697v202.467h-15.26l41.412 43h10.348a6.5 6.5 0 0 0 6.5-6.5V34.691a6.5 6.5 0 0 0-6.5-6.5"/>
  <path d="M224.655 199.42a6.5 6.5 0 0 0 6.236 1.492c4.098-1.183 10.135-2.898 15.639-4.357a6.5 6.5 0 0 0 3.393-2.199c1.518-1.878 3.296-3.852 4.598-5.294 6.479-7.193 15.354-17.043 11.448-28.758-2.013-5.867-6.021-10.201-11.594-12.533-2.948-1.234-6.147-1.833-9.784-1.833-12.584 0-28.438 7.618-45.223 15.683-7.487 3.597-19.419 9.329-26.381 11.35 1.646-4.16 4.895-9.963 7.181-14.05 3.969-7.087 8.073-14.416 10.182-21.566 4.594-15.575-2.562-23.934-7.277-27.562l-.092-.07c-4.23-3.173-8.941-4.782-14.001-4.782-14.476 0-29.065 12.832-40.788 23.143-4.802 4.224-8.536 7.423-11.153 9.306a6.5 6.5 0 0 0-2.564 6.615l2.626 12.475a6.498 6.498 0 0 0 9.388 4.413c5.621-2.958 11.457-8.093 18.22-14.042 5.539-4.872 11.268-9.91 16.521-13.344 2.215-1.448 3.874-2.295 5.068-2.79-1.496 4.48-5.568 11.75-7.94 15.988-4.03 7.202-8.198 14.65-10.159 21.787-4.619 16.809 5.146 24.699 9.522 27.288 3.231 1.943 6.864 2.887 11.105 2.887 11.163 0 25.158-6.724 41.364-14.51 8.074-3.879 16.424-7.89 23.458-10.479a80 80 0 0 1 1.6-.571c-4.958 5.514-10.811 12.282-12.511 20.197a6.49 6.49 0 0 0 1.918 6.116"/>
</svg>
